<?xml version="1.0" encoding="UTF-8" standalone="no"?>
<!DOCTYPE svg PUBLIC "-//W3C//DTD SVG 1.1//EN"
 "http://www.w3.org/Graphics/SVG/1.1/DTD/svg11.dtd">
<!-- Generated by graphviz version 2.47.3 (20210619.1520)
 -->
<!-- Title: dependencies Pages: 1 -->
<svg width="238pt" height="174pt"
 viewBox="0.00 0.00 238.00 173.80" xmlns="http://www.w3.org/2000/svg" xmlns:xlink="http://www.w3.org/1999/xlink">
<g id="graph0" class="graph" transform="scale(1 1) rotate(0) translate(4 169.8)">
<title>dependencies</title>
<polygon fill="white" stroke="transparent" points="-4,4 -4,-169.8 234,-169.8 234,4 -4,4"/>
<text text-anchor="middle" x="115" y="-8.2" font-family="sans-serif" font-size="14.00">dependencies</text>
<g id="clust1" class="cluster">
<title>cluster_UserBookingModule</title>
<polygon fill="none" stroke="black" stroke-dasharray="1,5" points="8,-32.8 8,-157.8 222,-157.8 222,-32.8 8,-32.8"/>
</g>
<g id="clust6" class="cluster">
<title>cluster_UserBookingModule_providers</title>
<polygon fill="none" stroke="black" points="16,-40.8 16,-92.8 214,-92.8 214,-40.8 16,-40.8"/>
</g>
<!-- UserBookingService -->
<g id="node1" class="node">
<title>UserBookingService</title>
<ellipse fill="#fdb462" stroke="black" cx="115" cy="-66.8" rx="91.47" ry="18"/>
<text text-anchor="middle" x="115" y="-62.6" font-family="Times,serif" font-size="14.00">UserBookingService</text>
</g>
<!-- UserBookingModule -->
<g id="node2" class="node">
<title>UserBookingModule</title>
<polygon fill="#8dd3c7" stroke="black" points="182.2,-149.8 179.2,-153.8 158.2,-153.8 155.2,-149.8 47.8,-149.8 47.8,-113.8 182.2,-113.8 182.2,-149.8"/>
<text text-anchor="middle" x="115" y="-127.6" font-family="Times,serif" font-size="14.00">UserBookingModule</text>
</g>
<!-- UserBookingService&#45;&gt;UserBookingModule -->
<g id="edge1" class="edge">
<title>UserBookingService&#45;&gt;UserBookingModule</title>
<path fill="none" stroke="black" d="M115,-84.91C115,-84.91 115,-103.79 115,-103.79"/>
<polygon fill="black" stroke="black" points="111.5,-103.79 115,-113.79 118.5,-103.79 111.5,-103.79"/>
</g>
</g>
</svg>
