<?xml version="1.0" encoding="UTF-8" standalone="no"?>
<!DOCTYPE svg PUBLIC "-//W3C//DTD SVG 1.1//EN"
 "http://www.w3.org/Graphics/SVG/1.1/DTD/svg11.dtd">
<!-- Generated by graphviz version 2.47.3 (20210619.1520)
 -->
<!-- Title: dependencies Pages: 1 -->
<svg width="546pt" height="174pt"
 viewBox="0.00 0.00 546.00 173.80" xmlns="http://www.w3.org/2000/svg" xmlns:xlink="http://www.w3.org/1999/xlink">
<g id="graph0" class="graph" transform="scale(1 1) rotate(0) translate(4 169.8)">
<title>dependencies</title>
<polygon fill="white" stroke="transparent" points="-4,4 -4,-169.8 542,-169.8 542,4 -4,4"/>
<text text-anchor="middle" x="269" y="-8.2" font-family="sans-serif" font-size="14.00">dependencies</text>
<g id="clust1" class="cluster">
<title>cluster_AppModule</title>
<polygon fill="none" stroke="black" stroke-dasharray="1,5" points="8,-32.8 8,-157.8 530,-157.8 530,-32.8 8,-32.8"/>
</g>
<g id="clust6" class="cluster">
<title>cluster_AppModule_providers</title>
<polygon fill="none" stroke="black" points="392,-40.8 392,-92.8 522,-92.8 522,-40.8 392,-40.8"/>
</g>
<g id="clust3" class="cluster">
<title>cluster_AppModule_imports</title>
<polygon fill="none" stroke="black" points="16,-40.8 16,-92.8 384,-92.8 384,-40.8 16,-40.8"/>
</g>
<!-- SeatsModule -->
<g id="node1" class="node">
<title>SeatsModule</title>
<polygon fill="#8dd3c7" stroke="black" points="375.6,-84.8 372.6,-88.8 351.6,-88.8 348.6,-84.8 286.4,-84.8 286.4,-48.8 375.6,-48.8 375.6,-84.8"/>
<text text-anchor="middle" x="331" y="-62.6" font-family="Times,serif" font-size="14.00">SeatsModule</text>
</g>
<!-- AppModule -->
<g id="node4" class="node">
<title>AppModule</title>
<polygon fill="#8dd3c7" stroke="black" points="307.66,-149.8 304.66,-153.8 283.66,-153.8 280.66,-149.8 224.34,-149.8 224.34,-113.8 307.66,-113.8 307.66,-149.8"/>
<text text-anchor="middle" x="266" y="-127.6" font-family="Times,serif" font-size="14.00">AppModule</text>
</g>
<!-- SeatsModule&#45;&gt;AppModule -->
<g id="edge1" class="edge">
<title>SeatsModule&#45;&gt;AppModule</title>
<path fill="none" stroke="black" d="M297.14,-84.91C297.14,-84.91 297.14,-103.79 297.14,-103.79"/>
<polygon fill="black" stroke="black" points="293.64,-103.79 297.14,-113.79 300.64,-103.79 293.64,-103.79"/>
</g>
<!-- UserBookingModule -->
<g id="node2" class="node">
<title>UserBookingModule</title>
<polygon fill="#8dd3c7" stroke="black" points="268.2,-84.8 265.2,-88.8 244.2,-88.8 241.2,-84.8 133.8,-84.8 133.8,-48.8 268.2,-48.8 268.2,-84.8"/>
<text text-anchor="middle" x="201" y="-62.6" font-family="Times,serif" font-size="14.00">UserBookingModule</text>
</g>
<!-- UserBookingModule&#45;&gt;AppModule -->
<g id="edge2" class="edge">
<title>UserBookingModule&#45;&gt;AppModule</title>
<path fill="none" stroke="black" d="M246.14,-84.91C246.14,-84.91 246.14,-103.79 246.14,-103.79"/>
<polygon fill="black" stroke="black" points="242.64,-103.79 246.14,-113.79 249.64,-103.79 242.64,-103.79"/>
</g>
<!-- UsersModule -->
<g id="node3" class="node">
<title>UsersModule</title>
<polygon fill="#8dd3c7" stroke="black" points="115.92,-84.8 112.92,-88.8 91.92,-88.8 88.92,-84.8 24.08,-84.8 24.08,-48.8 115.92,-48.8 115.92,-84.8"/>
<text text-anchor="middle" x="70" y="-62.6" font-family="Times,serif" font-size="14.00">UsersModule</text>
</g>
<!-- UsersModule&#45;&gt;AppModule -->
<g id="edge3" class="edge">
<title>UsersModule&#45;&gt;AppModule</title>
<path fill="none" stroke="black" d="M70,-84.91C70,-104.14 70,-131.8 70,-131.8 70,-131.8 213.95,-131.8 213.95,-131.8"/>
<polygon fill="black" stroke="black" points="213.95,-135.3 223.95,-131.8 213.95,-128.3 213.95,-135.3"/>
</g>
<!-- AppService -->
<g id="node5" class="node">
<title>AppService</title>
<ellipse fill="#fdb462" stroke="black" cx="457" cy="-66.8" rx="56.74" ry="18"/>
<text text-anchor="middle" x="457" y="-62.6" font-family="Times,serif" font-size="14.00">AppService</text>
</g>
<!-- AppService&#45;&gt;AppModule -->
<g id="edge4" class="edge">
<title>AppService&#45;&gt;AppModule</title>
<path fill="none" stroke="black" d="M457,-84.91C457,-104.14 457,-131.8 457,-131.8 457,-131.8 317.92,-131.8 317.92,-131.8"/>
<polygon fill="black" stroke="black" points="317.92,-128.3 307.92,-131.8 317.92,-135.3 317.92,-128.3"/>
</g>
</g>
</svg>
