<?xml version="1.0" encoding="UTF-8" standalone="no"?>
<!DOCTYPE svg PUBLIC "-//W3C//DTD SVG 1.1//EN"
 "http://www.w3.org/Graphics/SVG/1.1/DTD/svg11.dtd">
<!-- Generated by graphviz version 2.47.3 (20210619.1520)
 -->
<!-- Title: dependencies Pages: 1 -->
<svg width="804pt" height="250pt"
 viewBox="0.00 0.00 804.00 249.80" xmlns="http://www.w3.org/2000/svg" xmlns:xlink="http://www.w3.org/1999/xlink">
<g id="graph0" class="graph" transform="scale(1 1) rotate(0) translate(4 245.8)">
<title>dependencies</title>
<polygon fill="white" stroke="transparent" points="-4,4 -4,-245.8 800,-245.8 800,4 -4,4"/>
<text text-anchor="middle" x="398" y="-8.2" font-family="sans-serif" font-size="14.00">dependencies</text>
<g id="clust1" class="cluster">
<title>cluster_AppModule</title>
<polygon fill="none" stroke="black" stroke-dasharray="1,5" points="147,-108.8 147,-233.8 668,-233.8 668,-108.8 147,-108.8"/>
</g>
<g id="clust3" class="cluster">
<title>cluster_AppModule_imports</title>
<polygon fill="none" stroke="black" points="293,-116.8 293,-168.8 660,-168.8 660,-116.8 293,-116.8"/>
</g>
<g id="clust6" class="cluster">
<title>cluster_AppModule_providers</title>
<polygon fill="none" stroke="black" points="155,-116.8 155,-168.8 285,-168.8 285,-116.8 155,-116.8"/>
</g>
<g id="clust7" class="cluster">
<title>cluster_SeatsModule</title>
<polygon fill="none" stroke="black" stroke-dasharray="1,5" points="414,-32.8 414,-100.8 566,-100.8 566,-32.8 414,-32.8"/>
</g>
<g id="clust12" class="cluster">
<title>cluster_SeatsModule_providers</title>
<polygon fill="none" stroke="black" points="422,-40.8 422,-92.8 558,-92.8 558,-40.8 422,-40.8"/>
</g>
<g id="clust13" class="cluster">
<title>cluster_UserBookingModule</title>
<polygon fill="none" stroke="black" stroke-dasharray="1,5" points="574,-32.8 574,-100.8 788,-100.8 788,-32.8 574,-32.8"/>
</g>
<g id="clust18" class="cluster">
<title>cluster_UserBookingModule_providers</title>
<polygon fill="none" stroke="black" points="582,-40.8 582,-92.8 780,-92.8 780,-40.8 582,-40.8"/>
</g>
<g id="clust19" class="cluster">
<title>cluster_UsersModule</title>
<polygon fill="none" stroke="black" stroke-dasharray="1,5" points="8,-32.8 8,-100.8 406,-100.8 406,-32.8 8,-32.8"/>
</g>
<g id="clust22" class="cluster">
<title>cluster_UsersModule_exports</title>
<polygon fill="none" stroke="black" points="296,-40.8 296,-92.8 398,-92.8 398,-40.8 296,-40.8"/>
</g>
<g id="clust24" class="cluster">
<title>cluster_UsersModule_providers</title>
<polygon fill="none" stroke="black" points="16,-40.8 16,-92.8 288,-92.8 288,-40.8 16,-40.8"/>
</g>
<!-- SeatsModule -->
<g id="node1" class="node">
<title>SeatsModule</title>
<polygon fill="#8dd3c7" stroke="black" points="499.6,-160.8 496.6,-164.8 475.6,-164.8 472.6,-160.8 410.4,-160.8 410.4,-124.8 499.6,-124.8 499.6,-160.8"/>
<text text-anchor="middle" x="455" y="-138.6" font-family="Times,serif" font-size="14.00">SeatsModule</text>
</g>
<!-- AppModule -->
<g id="node4" class="node">
<title>AppModule</title>
<polygon fill="#8dd3c7" stroke="black" points="442.66,-225.8 439.66,-229.8 418.66,-229.8 415.66,-225.8 359.34,-225.8 359.34,-189.8 442.66,-189.8 442.66,-225.8"/>
<text text-anchor="middle" x="401" y="-203.6" font-family="Times,serif" font-size="14.00">AppModule</text>
</g>
<!-- SeatsModule&#45;&gt;AppModule -->
<g id="edge1" class="edge">
<title>SeatsModule&#45;&gt;AppModule</title>
<path fill="none" stroke="black" d="M426.64,-160.91C426.64,-160.91 426.64,-179.79 426.64,-179.79"/>
<polygon fill="black" stroke="black" points="423.14,-179.79 426.64,-189.79 430.14,-179.79 423.14,-179.79"/>
</g>
<!-- UserBookingModule -->
<g id="node2" class="node">
<title>UserBookingModule</title>
<polygon fill="#8dd3c7" stroke="black" points="652.2,-160.8 649.2,-164.8 628.2,-164.8 625.2,-160.8 517.8,-160.8 517.8,-124.8 652.2,-124.8 652.2,-160.8"/>
<text text-anchor="middle" x="585" y="-138.6" font-family="Times,serif" font-size="14.00">UserBookingModule</text>
</g>
<!-- UserBookingModule&#45;&gt;AppModule -->
<g id="edge2" class="edge">
<title>UserBookingModule&#45;&gt;AppModule</title>
<path fill="none" stroke="black" d="M585,-160.91C585,-180.14 585,-207.8 585,-207.8 585,-207.8 452.75,-207.8 452.75,-207.8"/>
<polygon fill="black" stroke="black" points="452.75,-204.3 442.75,-207.8 452.75,-211.3 452.75,-204.3"/>
</g>
<!-- UsersModule -->
<g id="node3" class="node">
<title>UsersModule</title>
<polygon fill="#8dd3c7" stroke="black" points="392.92,-160.8 389.92,-164.8 368.92,-164.8 365.92,-160.8 301.08,-160.8 301.08,-124.8 392.92,-124.8 392.92,-160.8"/>
<text text-anchor="middle" x="347" y="-138.6" font-family="Times,serif" font-size="14.00">UsersModule</text>
</g>
<!-- UsersModule&#45;&gt;AppModule -->
<g id="edge3" class="edge">
<title>UsersModule&#45;&gt;AppModule</title>
<path fill="none" stroke="black" d="M375.94,-160.91C375.94,-160.91 375.94,-179.79 375.94,-179.79"/>
<polygon fill="black" stroke="black" points="372.44,-179.79 375.94,-189.79 379.44,-179.79 372.44,-179.79"/>
</g>
<!-- JwtStratagy  -->
<g id="node8" class="node">
<title>JwtStratagy </title>
<polygon fill="#fb8072" stroke="black" points="389.6,-84.8 304.4,-84.8 304.4,-48.8 389.6,-48.8 389.6,-84.8"/>
<text text-anchor="middle" x="347" y="-62.6" font-family="Times,serif" font-size="14.00">JwtStratagy </text>
</g>
<!-- UsersModule&#45;&gt;JwtStratagy  -->
<g id="edge7" class="edge">
<title>UsersModule&#45;&gt;JwtStratagy </title>
<path fill="none" stroke="black" stroke-dasharray="5,2" d="M361.27,-124.79C361.27,-124.79 361.27,-94.95 361.27,-94.95"/>
<polygon fill="black" stroke="black" points="364.77,-94.95 361.27,-84.95 357.77,-94.95 364.77,-94.95"/>
</g>
<!-- AppService -->
<g id="node5" class="node">
<title>AppService</title>
<ellipse fill="#fdb462" stroke="black" cx="220" cy="-142.8" rx="56.74" ry="18"/>
<text text-anchor="middle" x="220" y="-138.6" font-family="Times,serif" font-size="14.00">AppService</text>
</g>
<!-- AppService&#45;&gt;AppModule -->
<g id="edge4" class="edge">
<title>AppService&#45;&gt;AppModule</title>
<path fill="none" stroke="black" d="M220,-160.91C220,-180.14 220,-207.8 220,-207.8 220,-207.8 349.02,-207.8 349.02,-207.8"/>
<polygon fill="black" stroke="black" points="349.02,-211.3 359.02,-207.8 349.02,-204.3 349.02,-211.3"/>
</g>
<!-- SeatsService -->
<g id="node6" class="node">
<title>SeatsService</title>
<ellipse fill="#fdb462" stroke="black" cx="490" cy="-66.8" rx="60.25" ry="18"/>
<text text-anchor="middle" x="490" y="-62.6" font-family="Times,serif" font-size="14.00">SeatsService</text>
</g>
<!-- SeatsService&#45;&gt;SeatsModule -->
<g id="edge5" class="edge">
<title>SeatsService&#45;&gt;SeatsModule</title>
<path fill="none" stroke="black" d="M464.59,-83.29C464.59,-83.29 464.59,-114.75 464.59,-114.75"/>
<polygon fill="black" stroke="black" points="461.09,-114.75 464.59,-124.75 468.09,-114.75 461.09,-114.75"/>
</g>
<!-- UserBookingService -->
<g id="node7" class="node">
<title>UserBookingService</title>
<ellipse fill="#fdb462" stroke="black" cx="681" cy="-66.8" rx="91.47" ry="18"/>
<text text-anchor="middle" x="681" y="-62.6" font-family="Times,serif" font-size="14.00">UserBookingService</text>
</g>
<!-- UserBookingService&#45;&gt;UserBookingModule -->
<g id="edge6" class="edge">
<title>UserBookingService&#45;&gt;UserBookingModule</title>
<path fill="none" stroke="black" d="M620.81,-80.39C620.81,-80.39 620.81,-114.76 620.81,-114.76"/>
<polygon fill="black" stroke="black" points="617.31,-114.76 620.81,-124.76 624.31,-114.76 617.31,-114.76"/>
</g>
<!-- JwtStratagy -->
<g id="node9" class="node">
<title>JwtStratagy</title>
<ellipse fill="#fdb462" stroke="black" cx="223" cy="-66.8" rx="56.76" ry="18"/>
<text text-anchor="middle" x="223" y="-62.6" font-family="Times,serif" font-size="14.00">JwtStratagy</text>
</g>
<!-- JwtStratagy&#45;&gt;UsersModule -->
<g id="edge8" class="edge">
<title>JwtStratagy&#45;&gt;UsersModule</title>
<path fill="none" stroke="black" d="M279.92,-66.8C286.24,-66.8 290.46,-66.8 290.46,-66.8 290.46,-66.8 290.46,-142.8 290.46,-142.8 290.46,-142.8 291.52,-142.8 291.52,-142.8"/>
<polygon fill="black" stroke="black" points="291.09,-146.3 301.09,-142.8 291.09,-139.3 291.09,-146.3"/>
</g>
<!-- UsersService -->
<g id="node10" class="node">
<title>UsersService</title>
<ellipse fill="#fdb462" stroke="black" cx="86" cy="-66.8" rx="61.95" ry="18"/>
<text text-anchor="middle" x="86" y="-62.6" font-family="Times,serif" font-size="14.00">UsersService</text>
</g>
<!-- UsersService&#45;&gt;UsersModule -->
<g id="edge9" class="edge">
<title>UsersService&#45;&gt;UsersModule</title>
<path fill="none" stroke="black" d="M86,-84.91C86,-94.7 86,-104.8 86,-104.8 86,-104.8 332.73,-104.8 332.73,-104.8 332.73,-104.8 332.73,-114.69 332.73,-114.69"/>
<polygon fill="black" stroke="black" points="329.23,-114.69 332.73,-124.69 336.23,-114.69 329.23,-114.69"/>
</g>
</g>
</svg>
